<svg id="Layer_1" data-sanitized-data-name="Layer 1" data-name="Layer 1" xmlns="http://www.w3.org/2000/svg"
      viewBox="0 0 504.75 497.78">
      <defs>
        <style>
          .prep-pyramid {
            max-width: 600px;
          }

          #Layer_1 text {
            font-family: "Source Sans Pro", sans-serif;
            font-size: 10px;
          }

          #Layer_1 a {
            transition: opacity .2s;
          }

          #Layer_1 a:hover {
            opacity: .6;
          }

          .cls-1 {
            fill: #bb5429;
          }

          .cls-1,
          .cls-2,
          .cls-3,
          .cls-4,
          .cls-5,
          .cls-6,
          .cls-7 {
            stroke-width: 0px;
          }

          .cls-2 {
            fill: #75281e;
          }

          .cls-3 {
            fill: #141414;
          }

          .cls-4 {
            fill: #dd7d39;
          }

          .cls-5 {
            fill: #131313;
          }

          .cls-6,
          .cls-21 {
            fill: #fff;
          }

          .cls-7 {
            fill: #9a3a1c;
          }
        </style>
      </defs>
      <path class="cls-2"
        d="M261.92,7.14c-5.5-9.53-14.5-9.53-20,0l-47.34,82c-5.5,9.53-1,17.32,10,17.32h94.69c11,0,15.5-7.79,10-17.32L261.92,7.14Z">
      </path>
      <path class="cls-7"
        d="M355.99,171.66c5.5,9.53,1,17.32-10,17.32h-188.14c-11,0-15.5-7.79-10-17.32l24.49-42.42c5.5-9.53,19-17.32,30-17.32h99.16c11,0,24.5,7.79,30,17.32l24.49,42.42Z">
      </path>
      <path class="cls-1"
        d="M403.76,255.99c5.5,9.53,1,17.32-10,17.32H110.08c-11,0-15.5-7.79-10-17.32l25.54-44.23c5.5-9.53,19-17.32,30-17.32h192.61c11,0,24.5,7.79,30,17.32l25.54,44.23Z">
      </path>
      <path class="cls-4"
        d="M451.53,340.32c5.5,9.53,1,17.32-10,17.32H62.31c-11,0-15.5-7.79-10-17.32l25.54-44.23c5.5-9.53,19-17.32,30-17.32h288.15c11,0,24.5,7.79,30,17.32l25.54,44.23Z">
      </path>
      <path class="cls-5"
        d="M499.3,424.65c5.5,9.53,1,17.32-10,17.32H14.53c-11,0-15.5-7.79-10-17.32l25.54-44.23c5.5-9.53,19-17.32,30-17.32h383.69c11,0,24.5,7.79,30,17.32l25.54,44.23Z">
      </path>
      <path class="cls-3"
        d="M502.74,465.18c5.07-9.76.22-17.75-10.78-17.75H12.29c-11,0-15.45,7.77-9.9,17.26l9.27,15.83c5.56,9.49,19.1,17.26,30.1,17.26h424.05c11,0,24.15-7.99,29.22-17.75l7.71-14.85Z">
      </path>
      <a href="#">
        <text class="cls-21" transform="translate(245 48)">
          <tspan x="0" y="0">12</tspan>
          <tspan x="-20.73" y="24">Barter</tspan>
          <tspan x="9.92" y="24">Items</tspan>
        </text>
      </a>
      <a href="#">
        <text class="cls-21" transform="translate(241.95 140.6)">
          <tspan x="0" y="0">11</tspan>
          <tspan class="cls-13" x="-46.8" y="24">Storage and Organization</tspan>
        </text>
      </a>
      <a href="#">
        <text class="cls-21" transform="translate(152.97 215.89)">
          <tspan x="0" y="0">8</tspan>
          <tspan x="-23.45" y="24">Hunting and </tspan>
          <tspan x="-27.87" y="36">Home Defense</tspan>
        </text>
      </a>
      <a href="#">
        <text class="cls-21" transform="translate(249.27 215.89)">
          <tspan x="0" y="0">9</tspan>
          <tspan x="-18.81" y="24">PPE, EMF </tspan>
          <tspan x="-28.4" y="36">Protection and</tspan>
          <tspan x="-15.18" y="48">Clothing</tspan>
        </text>
      </a>
      <a href="#">
        <text class="cls-21" transform="translate(342.41 215.89)">
          <tspan x="0" y="0">10</tspan>
          <tspan x="-22.85" y="24">Camping and </tspan>
          <tspan x="-16.81" y="36">Gardening</tspan>
        </text>
      </a>
      <rect class="cls-6" x="199.07" y="194.44" width="1" height="78.87"></rect>
      <rect class="cls-6" x="303.44" y="194.44" width="1" height="78.87"></rect>
      <a href="#">
        <text class="cls-21" transform="translate(135.36 300.22)">
          <tspan x="0" y="0">5</tspan>
          <tspan class="cls-15" x="-29.61" y="24">Fuel and Power</tspan>
        </text>
      </a>
      <a href="#">
        <text class="cls-21" transform="translate(249.27 300.11)">
          <tspan x="0" y="0">6</tspan>
          <tspan x="-32.69" y="24">Medical Supplies</tspan>
          <tspan x="-23.6" y="36">and Hygiene</tspan>
        </text>
      </a>
      <a href="#">
        <text class="cls-21" transform="translate(366.59 300.22)">
          <tspan x="0" y="0">7</tspan>
          <tspan class="cls-20" x="-17.68" y="24">Tools and</tspan>
          <tspan x="-19.32" y="36">Machinery</tspan>
        </text>
      </a>
      <rect class="cls-6" x="199.07" y="278.77" width="1" height="78.87"></rect>
      <rect class="cls-6" x="303.44" y="278.77" width="1" height="78.87"></rect>
      <a href="#">
        <text class="cls-21" transform="translate(192.95 384.55)">
          <tspan x="0" y="0">2</tspan>
          <tspan class="cls-14" x="-17.14" y="24">Food and</tspan>
          <tspan x="-16.83" y="36">Beverage</tspan>
        </text>
      </a>
      <a href="#">
        <text class="cls-21" transform="translate(79.5 384.55)">
          <tspan x="0" y="0">1</tspan>
          <tspan class="cls-15" x="-9.66" y="24">Water</tspan>
          <tspan x="-30.83" y="36">Purification and</tspan>
          <tspan class="cls-12" x="-13.48" y="48">Storage</tspan>
        </text>
      </a>
      <a href="#">
        <text class="cls-21" transform="translate(305.92 384.44)">
          <tspan x="0" y="0">3</tspan>
          <tspan x="-12.5" y="24">Shelter</tspan>
        </text>
      </a>
      <a href="#">
        <text class="cls-21" transform="translate(414.6 384.55)">
          <tspan x="0" y="0">4</tspan>
          <tspan x="-31.12" y="24">Community and </tspan>
          <tspan x="-33.21" y="36">Communi</tspan>
          <tspan class="cls-19" x="7.88" y="36">c</tspan>
          <tspan class="cls-18" x="12.34" y="36">a</tspan>
          <tspan x="17.24" y="36">tions</tspan>
        </text>
      </a>
      <a href="#">
        <text class="cls-21" transform="translate(177.41 475.98)">
          <tspan x="0" y="0">Supplies</tspan>
        </text>
      </a>
      <a href="#">
        <text class="cls-21" transform="translate(58.6 475.99)">
          <tspan x="0" y="0">Knowledge</tspan>
        </text>
      </a>
      <a href="#">
        <text class="cls-21" transform="translate(291.06 475.88)">
          <tspan x="0" y="0">Services</tspan>
        </text>
      </a>
      <a href="#">
        <text class="cls-21" transform="translate(392.5 475.98)">
          <tspan x="0" y="0">Community</tspan>
        </text>
      </a>
      <rect class="cls-6" x="251.42" y="363.1" width="1" height="78.87"></rect>
      <rect class="cls-6" x="138.44" y="363.1" width="1" height="78.87"></rect>
      <rect class="cls-6" x="364.39" y="363.1" width="1" height="78.87"></rect>
    </svg>